<?xml version="1.0" encoding="UTF-8"?>
<!DOCTYPE svg PUBLIC "-//W3C//DTD SVG 1.1//EN" "http://www.w3.org/Graphics/SVG/1.1/DTD/svg11.dtd">
<!-- Creator: CorelDRAW -->
<svg xmlns="http://www.w3.org/2000/svg" xml:space="preserve" width="43.3492mm" height="43.3492mm" version="1.1" style="shape-rendering:geometricPrecision; text-rendering:geometricPrecision; image-rendering:optimizeQuality; fill-rule:evenodd; clip-rule:evenodd"
viewBox="0 0 4335 4335"
 xmlns:xlink="http://www.w3.org/1999/xlink">
 <defs>
  <style type="text/css">
   <![CDATA[
    .fil0 {fill:url(#id0)}
   ]]>
  </style>
  <linearGradient id="id0" gradientUnits="userSpaceOnUse" x1="2167.46" y1="4162.44" x2="2167.46" y2="172.48">
   <stop offset="0" style="stop-opacity:1; stop-color:#1AA8DC"/>
   <stop offset="0.490196" style="stop-opacity:1; stop-color:#AE3B89"/>
   <stop offset="1" style="stop-opacity:1; stop-color:#F26270"/>
  </linearGradient>
 </defs>
 <g id="Layer_x0020_1">
  <metadata id="CorelCorpID_0Corel-Layer"/>
  <path class="fil0" d="M4275 673l-1711 0 852 852 567 0c35,0 63,28 63,63l0 859c0,36 -28,60 -63,60l-3138 0c-35,0 -63,-28 -63,-63l0 -856c0,-35 28,-63 63,-63l567 0 852 -852 -1655 0 0 2846 -542 0c-24,0 -46,5 -67,13l0 -3296c0,-35 28,-64 63,-64l483 0c35,0 63,29 63,64l0 313 3663 0c35,0 63,28 63,60 0,32 -28,64 -60,64zm-3148 3489l-1060 0c-35,0 -64,-28 -64,-63l0 -398c0,-35 29,-63 64,-63l1063 0c36,0 64,28 64,63l0 402c-4,31 -32,59 -67,59zm2113 -2637l-826 -826 -829 826 1655 0zm352 729c-35,0 -63,-28 -63,-64l0 -164 -141 -135c-25,-25 -25,-63 0,-88 24,-25 63,-25 88,0l113 113 119 -117c25,-24 64,-24 88,0 25,25 25,64 0,89l-141 137 0 165c-3,36 -28,64 -63,64zm-437 -296l39 0c21,0 39,-18 39,-39 0,-21 -18,-39 -39,-39l-39 0 0 78zm-63 324c-35,0 -64,-28 -64,-63l0 -201 0 -204c0,-36 29,-64 64,-64l102 0c88,0 162,74 162,162 0,73 -51,142 -119,163l101 101c25,25 25,64 0,88 -14,11 -31,18 -45,18 -14,0 -32,-7 -43,-18l-95 -95 0 50c0,35 -28,63 -63,63zm-902 -324l39 0c21,0 39,-18 39,-39 0,-21 -18,-39 -39,-39l-39 0 0 78zm-60 324c-35,0 -63,-28 -63,-63l0 -189c-1,-7 -1,-14 0,-21l0 -195c0,-36 28,-64 63,-64l99 0c92,0 162,74 162,162 0,73 -51,142 -119,163l101 101c25,25 25,64 0,88 -14,11 -28,18 -45,18 -14,0 -32,-7 -43,-18l-91 -91 0 46c-4,35 -32,63 -64,63zm-651 14c-35,0 -63,-28 -63,-63l0 -430c0,-35 28,-63 63,-63 35,0 63,28 63,63l0 430c-3,35 -31,63 -63,63zm335 -14l-103 0c-35,0 -63,-28 -63,-63l0 -201 0 -204c0,-36 28,-64 63,-64l103 0c91,0 162,74 162,162 0,38 -13,74 -35,103 22,27 35,62 35,101 3,92 -71,166 -162,166zm-39 -328l39 0c4,0 9,1 14,1 14,-6 24,-20 24,-36 0,-21 -17,-39 -38,-39l-39 0 0 74zm0 205l39 0c21,0 38,-18 38,-39 0,-21 -17,-39 -38,-39l-39 0 0 78zm-497 137l-183 0c-35,0 -63,-28 -63,-63l0 -430c0,-35 28,-63 63,-63 35,0 64,28 64,63l0 370 119 0c35,0 64,28 64,63 -4,32 -32,60 -64,60zm1526 -88l-189 0 -20 49c-10,25 -35,39 -60,39 -7,0 -14,0 -21,-4 -31,-14 -45,-49 -35,-81l35 -86c1,-3 2,-6 3,-8l135 -335c10,-25 31,-39 56,-39 0,0 0,0 0,0 25,0 49,14 56,39l131 319c10,11 17,26 17,42l28 68c15,32 -3,67 -35,81 -31,15 -67,-3 -81,-35l-20 -49zm-140 -127l89 0 -45 -113 -44 113z"/>
 </g>
</svg>
